HIERARCHY
ROOT ui
{
	 OFFSET 0 0 0
	 CHANNELS 3 XPosition YPosition Z Position
	 EndSite
	 {
	 OFFSET 0 -1 0
	 }
}
ROOT li
{
	 OFFSET 0 0 0
	 CHANNELS 3 XPosition YPosition Z Position
	 EndSite
	 {
	 OFFSET 0 -1 0
	 }
}
ROOT ul
{
	 OFFSET 0 0 0
	 CHANNELS 3 XPosition YPosition Z Position
	 EndSite
	 {
	 OFFSET 0 -1 0
	 }
}
ROOT ll
{
	 OFFSET 0 0 0
	 CHANNELS 3 XPosition YPosition Z Position
	 EndSite
	 {
	 OFFSET 0 -1 0
	 }
}
ROOT tt
{
	 OFFSET 0 0 0
	 CHANNELS 3 XPosition YPosition Z Position
	 EndSite
	 {
	 OFFSET 0 -1 0
	 }
}
ROOT tb
{
	 OFFSET 0 0 0
	 CHANNELS 3 XPosition YPosition Z Position
	 EndSite
	 {
	 OFFSET 0 -1 0
	 }
}
ROOT td
{
	 OFFSET 0 0 0
	 CHANNELS 3 XPosition YPosition Z Position
	 EndSite
	 {
	 OFFSET 0 -1 0
	 }
}
ROOT v
{
	 OFFSET 0 0 0
	 CHANNELS 3 XPosition YPosition Z Position
	 EndSite
	 {
	 OFFSET 0 -1 0
	 }
}
ROOT bn
{
	 OFFSET 0 0 0
	 CHANNELS 3 XPosition YPosition Z Position
	 EndSite
	 {
	 OFFSET 0 -1 0
	 }
}
MOTION
Frames: 21
Frame Time: 0.002
0.001660141944885254	-0.0016004339456558228	0		0.46409661865234375	-2.327953369140625	0		-1.06545849609375	0.19476075744628907	0		-0.8511038208007813	-2.722863037109375	0		1.76252197265625	-0.5466240844726562	0		3.438842529296875	-0.27725787353515624	0		4.6038837890625	-0.414111328125	0		6.02616748046875	0.5732284545898437	0		-0.2021569061279297	5.8902109375	0		
-0.0033982980251312258	0.003311548948287964	0		0.4349985656738281	-2.327666748046875	0		-0.991620849609375	0.19244943237304687	0		-0.77931494140625	-2.731139892578125	0		1.7501663818359374	-0.561576904296875	0		3.45284716796875	-0.2685866394042969	0		4.61166162109375	-0.4203294982910156	0		6.03715966796875	0.5819834594726563	0		-0.08419366455078126	5.9012373046875	0		
-0.006647519111633301	-7.731159925460816E-4	0		0.46659896850585936	-2.34427783203125	0		-1.0708489990234376	0.1905102081298828	0		-0.852375	-2.72516845703125	0		1.7377591552734375	-0.576494873046875	0		3.4315126953125	-0.27834060668945315	0		4.616341796875	-0.4294624328613281	0		6.0209638671875	0.5821930541992187	0		-0.07129407501220703	5.9129052734375	0		
0.0010971570014953614	-0.001991912007331848	0		0.41452932739257814	-2.33557373046875	0		-1.06516845703125	0.18530364990234374	0		-0.7776206665039063	-2.729424560546875	0		1.733255859375	-0.594497802734375	0		3.442185546875	-0.28454400634765625	0		4.605111328125	-0.42930987548828126	0		6.02557666015625	0.573127197265625	0		-0.2360914764404297	5.88431396484375	0		
-0.004112964153289795	0.00302243709564209	0		0.41834866333007814	-2.331688232421875	0		-1.049537109375	0.1799781494140625	0		-0.8456785278320312	-2.7174658203125	0		1.729919921875	-0.5984788818359374	0		3.46162744140625	-0.302840576171875	0		4.6137861328125	-0.432417724609375	0		6.0252783203125	0.57318408203125	0		-0.23650904846191406	5.883248046875	0		
0.0026462359428405763	0.008890214920043946	0		0.4450353088378906	-2.33411474609375	0		-0.97995654296875	0.17386521911621095	0		-0.7710193481445312	-2.722650390625	0		1.7485997314453126	-0.5987548217773437	0		3.43570166015625	-0.2763963317871094	0		4.6274931640625	-0.4305540771484375	0		6.0249345703125	0.5732921752929687	0		-0.07054800415039063	5.90968798828125	0		
-0.004816044807434082	0.0030091400146484374	0		0.42973947143554686	-2.33286376953125	0		-1.0674744873046875	0.16517544555664063	0		-0.8462528686523437	-2.71751904296875	0		1.7131864013671876	-0.6021665649414063	0		3.419065185546875	-0.29405258178710936	0		4.59828759765625	-0.4199859619140625	0		6.02454833984375	0.5734560546875	0		-0.07203836822509765	5.911712890625	0		
-0.0052240447998046875	0.003056528091430664	0		0.42736856079101565	-2.3347734375	0		-0.9979710693359375	0.1591311798095703	0		-0.7845442504882812	-2.7154365234375	0		1.7625777587890625	-0.6168264770507812	0		3.4336640625	-0.2941342468261719	0		4.62850927734375	-0.4452734680175781	0		6.0241240234375	0.5736768798828125	0		-0.0867815170288086	5.9009716796875	0		
-0.008723434448242187	-8.165450096130372E-4	0		0.4089153137207031	-2.3404052734375	0		-1.0806329345703125	0.1454232940673828	0		-0.8418446655273437	-2.711517822265625	0		1.7560531005859374	-0.6235973510742188	0		3.449020751953125	-0.308183837890625	0		4.62019140625	-0.437924072265625	0		6.01466748046875	0.5740867919921875	0		-0.23867942810058593	5.884337890625	0		
-0.0061271929740905765	0.0032496960163116454	0		0.43752886962890625	-2.340716796875	0		-1.005246337890625	0.1353517303466797	0		-0.8470029907226563	-2.69736083984375	0		1.7525506591796876	-0.6273787231445312	0		3.45279345703125	-0.29301473999023436	0		4.63172607421875	-0.43883355712890626	0		6.0270615234375	0.5662110595703125	0		-0.20625933837890625	5.88994287109375	0		
-0.006607763767242432	0.003389781951904297	0		0.4101672058105469	-2.338154052734375	0		-1.0888277587890625	0.12970635986328125	0		-0.8562180786132813	-2.6861171875	0		1.742928466796875	-0.6380374755859375	0		3.434114990234375	-0.30647540283203123	0		4.63126171875	-0.43852386474609373	0		6.026560546875	0.5665718383789062	0		-0.2069552001953125	5.89007568359375	0		
-0.0070950789451599125	0.0035542209148406983	0		0.4575846252441406	-2.350693359375	0		-1.0274921875	0.11789866638183594	0		-0.8186207885742187	-2.687556396484375	0		1.747375244140625	-0.6438798828125	0		3.485708740234375	-0.30195989990234373	0		4.62670166015625	-0.4441194458007813	0		6.02191650390625	0.558030517578125	0		-0.07435443115234375	5.9102314453125	0		
-0.007577562808990478	0.0037385969161987304	0		0.43024606323242187	-2.3470859375	0		-1.0352183837890625	0.10214815521240235	0		-0.8237833251953125	-2.67333154296875	0		1.7936590576171876	-0.661326416015625	0		3.453182373046875	-0.30515325927734377	0		4.6262373046875	-0.44374627685546875	0		6.01341259765625	0.5585803833007813	0		-0.089225830078125	5.9006240234375	0		
-0.011101240158081055	-1.7063999548554422E-5	0		0.4377164001464844	-2.357986572265625	0		-1.03700048828125	0.08132086181640626	0		-0.8431018676757812	-2.670883544921875	0		1.748138427734375	-0.6663777465820313	0		3.477638916015625	-0.3111800842285156	0		4.63752197265625	-0.4615276794433594	0		6.01292431640625	0.5590352172851563	0		-0.2081216278076172	5.88958447265625	0		
0.004436645984649658	-0.002047422885894775	0		0.42337503051757813	-2.358550537109375	0		-1.0315096435546875	0.07639521789550781	0		-0.8312388305664062	-2.65889208984375	0		1.783658447265625	-0.6716292724609375	0		3.46616357421875	-0.3146562805175781	0		4.629216796875	-0.4539993896484375	0		6.0124697265625	0.5595048217773437	0		-0.238953857421875	5.8802314453125	0		
0.07304763031005859	-0.0028609809875488282	0		0.45827130126953125	-2.346842041015625	0		-1.0491005859375	0.06281529998779296	0		-0.8441012573242187	-2.631527099609375	0		1.7741439208984375	-0.6822050170898437	0		3.471973388671875	-0.30238363647460936	0		4.6401064453125	-0.43675057983398435	0		6.0120634765625	0.5599795532226562	0		-0.2074925994873047	5.8869560546875	0		
-0.009175373077392577	0.004564489841461182	0		0.40789614868164065	-2.35687158203125	0		-1.054779296875	0.03905426025390625	0		-0.83821826171875	-2.6254453125	0		1.800613037109375	-0.6983165893554687	0		3.444490966796875	-0.31362118530273436	0		4.63644921875	-0.46029083251953123	0		6.00348193359375	0.5445728149414063	0		-0.22320431518554687	5.87837841796875	0		
0.07435197448730468	-0.010474493980407715	0		0.4326826171875	-2.36102197265625	0		-1.0653170166015624	0.020357337951660157	0		-0.8271820678710937	-2.613446044921875	0		1.7881673583984374	-0.712857421875	0		3.469156982421875	-0.31963623046875	0		4.6472119140625	-0.4600468444824219	0		6.00706787109375	0.5359819946289063	0		-0.0914118423461914	5.8986171875	0		
-0.012687411308288574	9.955499768257142E-4	0		0.41450680541992185	-2.366549560546875	0		-1.0686907958984375	0.008541539192199707	0		-0.8279949340820313	-2.595283935546875	0		1.790855712890625	-0.7226323852539063	0		3.4748564453125	-0.32737933349609377	0		4.63912548828125	-0.4535319213867188	0		5.99884765625	0.5365592041015625	0		-0.22224447631835936	5.874716796875	0		
-0.009776451110839844	0.005119946956634522	0		0.44346664428710936	-2.366786376953125	0		-1.0610447998046875	-0.005454722881317139	0		-0.8876920776367188	-2.57227490234375	0		1.78158154296875	-0.7332462158203125	0		3.458063720703125	-0.3038009033203125	0		4.656865234375	-0.46240939331054687	0		5.99991015625	0.5529918823242187	0		-0.24157560729980468	5.881154296875	0		
-3.592899814248085E-5	-0.004878039836883545	0		0.44346942138671874	-2.3666171875	0		-1.026335693359375	-0.017869077682495117	0		-0.8005862426757813	-2.566443359375	0		1.770301513671875	-0.746849853515625	0		3.47462841796875	-0.32673187255859376	0		4.65677587890625	-0.46203607177734374	0		6.00653662109375	0.5373296508789063	0		-0.2079029846191406	5.8857919921875	0		
